<?xml version="1.0" encoding="UTF-8"?>
<svg width="16px" height="18px" viewBox="0 0 16 18" version="1.1" xmlns="http://www.w3.org/2000/svg" xmlns:xlink="http://www.w3.org/1999/xlink">
    <!-- Generator: sketchtool 62 (101010) - https://sketch.com -->
    <title>A382A420-D2ED-4DB7-B38C-C4B6D1B8CEE1</title>
    <desc>Created with sketchtool.</desc>
    <g id="Asset-Artboard-Page" stroke="none" stroke-width="1" fill="none" fill-rule="evenodd">
        <g id="logo/apple/white" transform="translate(-1.000000, 0.000000)" fill="#FFFFFF" fill-rule="nonzero">
            <path d="M16.2614964,14.0274653 C15.9892824,14.6563352 15.6670699,15.2352066 15.2937478,15.7674127 C14.7848743,16.4929464 14.3682202,16.9951534 14.0471188,17.2740339 C13.549356,17.7317978 13.0160388,17.9662352 12.4449449,17.9795681 C12.0349573,17.9795681 11.5405278,17.862905 10.9649896,17.6262455 C10.3875626,17.390697 9.85691194,17.2740339 9.37170437,17.2740339 C8.86283084,17.2740339 8.31706954,17.390697 7.73330938,17.6262455 C7.14866037,17.862905 6.67767458,17.9862346 6.31757434,17.9984565 C5.76992421,18.0217891 5.2240518,17.7806853 4.67917936,17.2740339 C4.33141208,16.9707097 3.89642521,16.4507254 3.37532983,15.714081 C2.8162356,14.9274381 2.35658281,14.0152434 1.99648256,12.9752748 C1.61082754,11.8519754 1.41750004,10.7642305 1.41750004,9.71115115 C1.41750004,8.50485424 1.67815884,7.46444121 2.20025419,6.59257865 C2.61057514,5.89226646 3.15644755,5.3398387 3.83964915,4.93429539 C4.52285074,4.52875208 5.26105068,4.32209165 6.05602668,4.30886983 C6.49101355,4.30886983 7.06144078,4.44342132 7.77030827,4.70785778 C8.47717582,4.9731831 8.93105101,5.1077346 9.130045,5.1077346 C9.27881828,5.1077346 9.78302529,4.95040601 10.6377773,4.63674882 C11.4460862,4.34586871 12.1282878,4.22542791 12.6871598,4.27287092 C14.2015586,4.39508945 15.339302,4.99207142 16.0959458,6.0675945 C14.7415423,6.88823639 14.0715625,8.03764612 14.0848954,9.51215715 C14.0971173,10.660678 14.5137714,11.6164269 15.3326355,12.3752929 C15.7037354,12.7275045 16.1181674,12.9997185 16.5792646,13.193046 C16.4792676,13.4830372 16.3737152,13.7608066 16.2614964,14.0274653 L16.2614964,14.0274653 Z M12.7882677,0.360100233 C12.7882677,1.26030637 12.4593887,2.10082542 11.803853,2.87880192 C11.0127658,3.80366287 10.0559059,4.33809117 9.01827064,4.25376038 C9.00504881,4.14576365 8.99738238,4.03210041 8.99738238,3.91265958 C8.99738238,3.04846346 9.37359322,2.12360251 10.0416841,1.36740314 C10.3752296,0.984525813 10.799439,0.666168764 11.3138678,0.412209769 C11.8271857,0.162039549 12.3127265,0.0236881733 12.7693794,0 C12.7827123,0.120340809 12.7882677,0.240692729 12.7882677,0.360089122 L12.7882677,0.360100233 Z" id="logo_apple_white"></path>
        </g>
    </g>
</svg>