<svg viewBox="0 0 18 19" xmlns="http://www.w3.org/2000/svg"><g fill="none" fill-rule="evenodd"><path d="M6.192.52c-2.228.79-4.126 2.516-5.184 4.7a9.618 9.618 0 0 0-.797 2.385 9.835 9.835 0 0 0 .793 6.128 9.484 9.484 0 0 0 2.484 3.163 9.01 9.01 0 0 0 3.324 1.737c1.526.423 3.15.413 4.683.05a8.202 8.202 0 0 0 3.748-2.016c1.108-1.054 1.9-2.44 2.317-3.932.458-1.625.517-3.362.232-5.033H9.18V11.4h4.987a4.491 4.491 0 0 1-1.83 2.93c-.606.422-1.3.692-2.017.824a5.812 5.812 0 0 1-2.184-.005 5.348 5.348 0 0 1-2.037-.913 5.852 5.852 0 0 1-2.095-2.908 5.958 5.958 0 0 1 0-3.69 5.958 5.958 0 0 1 1.328-2.235A5.423 5.423 0 0 1 8.07 3.83a5.285 5.285 0 0 1 2.686.113c.737.23 1.416.652 1.972 1.202.56-.58 1.12-1.162 1.682-1.742.295-.31.605-.612.89-.932A8.907 8.907 0 0 0 12.354.58 8.937 8.937 0 0 0 6.192.52z" fill="#FFF"/><path d="M6.192.52a8.96 8.96 0 0 1 6.162.056 8.839 8.839 0 0 1 2.946 1.89c-.285.32-.595.62-.89.932L12.728 5.14a4.952 4.952 0 0 0-1.972-1.202c-.866-.27-1.8-.31-2.686-.113-1.032.23-1.99.79-2.734 1.574-.6.626-1.052 1.4-1.328 2.236-.998-.805-1.997-1.605-3-2.41C2.066 3.036 3.964 1.31 6.192.52z" fill="#EA4335"/><path d="M.216 7.6c.163-.825.428-1.63.797-2.384.998.805 1.997 1.605 3 2.41a5.912 5.912 0 0 0 0 3.687c-.998.805-1.997 1.61-2.995 2.41C.093 11.853-.187 9.658.216 7.6z" fill="#FBBC05"/><path d="M9.182 7.697h8.607c.284 1.665.22 3.402-.233 5.032-.418 1.492-1.21 2.878-2.316 3.932-.968-.78-1.937-1.56-2.906-2.338a4.475 4.475 0 0 0 1.83-2.93H9.177c.005-1.232.005-2.465.005-3.697z" fill="#4285F4"/><path d="M1.008 13.728c1-.8 1.997-1.605 2.995-2.41a5.892 5.892 0 0 0 2.095 2.91 5.37 5.37 0 0 0 2.036.91c.718.154 1.46.133 2.184.006a5.12 5.12 0 0 0 2.016-.825c.97.778 1.938 1.557 2.907 2.337a8.158 8.158 0 0 1-3.747 2.017c-1.534.362-3.157.372-4.682-.05a8.949 8.949 0 0 1-3.323-1.738 9.503 9.503 0 0 1-2.48-3.158z" fill="#34A853"/></g></svg>