<?xml version="1.0" encoding="UTF-8"?>
<svg width="20" height="20" viewBox="0 0 20 20" fill="none" xmlns="http://www.w3.org/2000/svg">
    <path fill-rule="evenodd" clip-rule="evenodd" d="M10 0.833328C12.9867 0.833328 15.4167 3.26333 15.4167 6.24999C15.4167 9.23666 12.9867 11.6667 10 11.6667C7.01333 11.6667 4.58333 9.23666 4.58333 6.24999C4.58333 3.26333 7.01333 0.833328 10 0.833328ZM10 11.6667H5.83333C3.995 11.6667 2.5 13.1617 2.5 15V18.3333H4.16667V15C4.16667 14.0808 4.91417 13.3333 5.83333 13.3333H14.1667C15.0858 13.3333 15.8333 14.0808 15.8333 15V18.3333H17.5V15C17.5 13.1617 16.005 11.6667 14.1667 11.6667H10ZM6.25 6.24999C6.25 8.31749 7.9325 10 10 10C12.0675 10 13.75 8.31749 13.75 6.24999C13.75 4.1825 12.0675 2.49999 10 2.49999C7.9325 2.49999 6.25 4.1825 6.25 6.24999Z" fill="#232323"/>
</svg>
