<?xml version="1.0" encoding="UTF-8"?>
<svg width="20" height="20" viewBox="0 0 20 20" fill="none" xmlns="http://www.w3.org/2000/svg">
    <path d="M17.5 0.833344H6.18331C5.74165 0.833344 5.31665 1.00834 4.99998 1.32501L1.32498 5.00001C1.00831 5.31668 0.833313 5.73334 0.833313 6.18334V16.6667C0.833313 17.5833 1.58331 18.3333 2.49998 18.3333H13.8166C14.2583 18.3333 14.6833 18.1583 15 17.8417L18.675 14.1667C18.9916 13.85 19.1666 13.4333 19.1666 12.9833V2.50001C19.1666 1.58334 18.4166 0.833344 17.5 0.833344ZM13.825 5.00001H9.51665L12.0166 2.50001H16.325L13.825 5.00001ZM6.18331 2.50001H9.65831L7.15831 5.00001H3.67498L6.17498 2.50001H6.18331ZM2.49998 16.6667V6.66668H6.66665V10.075H8.33331V6.66668H13.3333V16.6667H2.49998ZM15 15.4917V6.17501L17.5 3.67501V12.9833L15 15.4833V15.4917Z" fill="#232323"/>
</svg>