<svg xmlns="http://www.w3.org/2000/svg" width="45" height="15" fill="currentColor"><path fill="#232323" d="M29.233 4.88s3.39.453 3.153 3.632l.07 5.506h-2.718l-.091-1.03v-.042c-.911 1.127-2.93 1.243-3.53 1.252h-.172c-4.696.085-4.844-2.347-4.848-2.568v-.016c-.342-2.504 2.524-2.715 5.294-2.86l.689-.035.226-.013c2.991-.172 2.288-1.328 2.288-1.328-.128-.97-2.288-1.063-2.288-1.063-2.995-.235-3.02 1.587-3.02 1.587h-2.803s.01-2.337 2.966-3.008c.027-.009 1.763-.514 4.784-.014Zm9.64-.16c3.53-.102 4.95 1.18 5.512 2.216.18.364.228.54.253.876l-2.804.026c-.442-.869-1.301-1.337-2.797-1.306-.807.017-3.294.285-3.37 2.864v.094c.121 2.581 2.556 2.845 3.31 2.838 1.756-.016 2.468-.517 2.885-1.387l2.805-.026c-.019.338-.064.515-.237.882-.543 1.047-1.909 2.411-5.47 2.343-1.207-.022-2.168-.112-2.911-.42-1.125-.465-3.092-1.29-3.235-4.106-.136-2.691 1.952-3.958 3.17-4.434.726-.282 1.891-.43 2.888-.46ZM7.602.848s3.938.323 3.938 3.15H8.8s-.1-1.571-2.55-1.499h-.035c-.298.005-2.455.116-2.254 2.365h7.58v1.24c.224-.339.8-.901 2.26-1.291 0 0 6.226-1.355 6.852 3.033v6.172h-2.74v-5.12c-.406-2.76-3.512-2.254-3.512-2.254-2.125.178-2.716 1.371-2.859 2.248v5.127h-2.74v-7.3H4.004v7.3h-2.74v-7.3H.026L0 4.864h1.258c-.024-.37-.055-1.995 1.157-3.028 0 0 1.33-1.295 5.187-.99Zm21.993 8.886c-.299.405-1.8.41-1.8.41-1.497.1-3.728.032-3.691 1.334.037 1.381 1.858 1.227 2.71 1.192.961-.039 1.787-.293 2.472-1.12.598-.72.336-1.773.332-1.816-.003-.041-.023 0-.023 0Z"/></svg>